<mxfile host="drawio-plugin" modified="2022-03-13T16:54:33.549Z" agent="5.0 (Windows NT 6.2; Win64; x64) AppleWebKit/537.36 (KHTML, like Gecko) Chrome/89.0.4389.114 Safari/537.36" etag="ieELEZDuBcJHRgyw_47F" version="15.5.4" type="embed"><diagram id="C5RBs43oDa-KdzZeNtuy" name="Page-1"><mxGraphModel dx="1376" dy="2230" grid="1" gridSize="10" guides="1" tooltips="1" connect="1" arrows="1" fold="1" page="1" pageScale="1" pageWidth="827" pageHeight="1169" math="0" shadow="0"><root><mxCell id="WIyWlLk6GJQsqaUBKTNV-0"/><mxCell id="WIyWlLk6GJQsqaUBKTNV-1" parent="WIyWlLk6GJQsqaUBKTNV-0"/><mxCell id="zkfFHV4jXpPFQw0GAbJ--0" value="Vahicle" style="swimlane;fontStyle=2;align=center;verticalAlign=top;childLayout=stackLayout;horizontal=1;startSize=26;horizontalStack=0;resizeParent=1;resizeLast=0;collapsible=1;marginBottom=0;rounded=0;shadow=0;strokeWidth=1;" parent="WIyWlLk6GJQsqaUBKTNV-1" vertex="1"><mxGeometry x="90" y="150" width="160" height="360" as="geometry"><mxRectangle x="230" y="140" width="160" height="26" as="alternateBounds"/></mxGeometry></mxCell><mxCell id="5JrpgaCym7MfUzeqcaHj-56" value="id" style="text;align=left;verticalAlign=top;spacingLeft=4;spacingRight=4;overflow=hidden;rotatable=0;points=[[0,0.5],[1,0.5]];portConstraint=eastwest;" parent="zkfFHV4jXpPFQw0GAbJ--0" vertex="1"><mxGeometry y="26" width="160" height="26" as="geometry"/></mxCell><mxCell id="5JrpgaCym7MfUzeqcaHj-60" value="type" style="text;align=left;verticalAlign=top;spacingLeft=4;spacingRight=4;overflow=hidden;rotatable=0;points=[[0,0.5],[1,0.5]];portConstraint=eastwest;" parent="zkfFHV4jXpPFQw0GAbJ--0" vertex="1"><mxGeometry y="52" width="160" height="26" as="geometry"/></mxCell><mxCell id="5JrpgaCym7MfUzeqcaHj-47" value="registration" style="text;align=left;verticalAlign=top;spacingLeft=4;spacingRight=4;overflow=hidden;rotatable=0;points=[[0,0.5],[1,0.5]];portConstraint=eastwest;" parent="zkfFHV4jXpPFQw0GAbJ--0" vertex="1"><mxGeometry y="78" width="160" height="26" as="geometry"/></mxCell><mxCell id="5JrpgaCym7MfUzeqcaHj-49" value="brand" style="text;align=left;verticalAlign=top;spacingLeft=4;spacingRight=4;overflow=hidden;rotatable=0;points=[[0,0.5],[1,0.5]];portConstraint=eastwest;" parent="zkfFHV4jXpPFQw0GAbJ--0" vertex="1"><mxGeometry y="104" width="160" height="26" as="geometry"/></mxCell><mxCell id="5JrpgaCym7MfUzeqcaHj-52" value="model" style="text;align=left;verticalAlign=top;spacingLeft=4;spacingRight=4;overflow=hidden;rotatable=0;points=[[0,0.5],[1,0.5]];portConstraint=eastwest;" parent="zkfFHV4jXpPFQw0GAbJ--0" vertex="1"><mxGeometry y="130" width="160" height="26" as="geometry"/></mxCell><mxCell id="5JrpgaCym7MfUzeqcaHj-51" value="generation" style="text;align=left;verticalAlign=top;spacingLeft=4;spacingRight=4;overflow=hidden;rotatable=0;points=[[0,0.5],[1,0.5]];portConstraint=eastwest;" parent="zkfFHV4jXpPFQw0GAbJ--0" vertex="1"><mxGeometry y="156" width="160" height="26" as="geometry"/></mxCell><mxCell id="5JrpgaCym7MfUzeqcaHj-50" value="year" style="text;align=left;verticalAlign=top;spacingLeft=4;spacingRight=4;overflow=hidden;rotatable=0;points=[[0,0.5],[1,0.5]];portConstraint=eastwest;" parent="zkfFHV4jXpPFQw0GAbJ--0" vertex="1"><mxGeometry y="182" width="160" height="26" as="geometry"/></mxCell><mxCell id="5JrpgaCym7MfUzeqcaHj-54" value="engineCapacity" style="text;align=left;verticalAlign=top;spacingLeft=4;spacingRight=4;overflow=hidden;rotatable=0;points=[[0,0.5],[1,0.5]];portConstraint=eastwest;" parent="zkfFHV4jXpPFQw0GAbJ--0" vertex="1"><mxGeometry y="208" width="160" height="26" as="geometry"/></mxCell><mxCell id="5JrpgaCym7MfUzeqcaHj-55" value="horsePower" style="text;align=left;verticalAlign=top;spacingLeft=4;spacingRight=4;overflow=hidden;rotatable=0;points=[[0,0.5],[1,0.5]];portConstraint=eastwest;" parent="zkfFHV4jXpPFQw0GAbJ--0" vertex="1"><mxGeometry y="234" width="160" height="26" as="geometry"/></mxCell><mxCell id="zkfFHV4jXpPFQw0GAbJ--1" value="ownerId" style="text;align=left;verticalAlign=top;spacingLeft=4;spacingRight=4;overflow=hidden;rotatable=0;points=[[0,0.5],[1,0.5]];portConstraint=eastwest;" parent="zkfFHV4jXpPFQw0GAbJ--0" vertex="1"><mxGeometry y="260" width="160" height="26" as="geometry"/></mxCell><mxCell id="5JrpgaCym7MfUzeqcaHj-0" value="Task" style="swimlane;fontStyle=2;align=center;verticalAlign=top;childLayout=stackLayout;horizontal=1;startSize=26;horizontalStack=0;resizeParent=1;resizeLast=0;collapsible=1;marginBottom=0;rounded=0;shadow=0;strokeWidth=1;" parent="WIyWlLk6GJQsqaUBKTNV-1" vertex="1"><mxGeometry x="330" y="150" width="160" height="210" as="geometry"><mxRectangle x="230" y="140" width="160" height="26" as="alternateBounds"/></mxGeometry></mxCell><mxCell id="5JrpgaCym7MfUzeqcaHj-1" value="id" style="text;align=left;verticalAlign=top;spacingLeft=4;spacingRight=4;overflow=hidden;rotatable=0;points=[[0,0.5],[1,0.5]];portConstraint=eastwest;" parent="5JrpgaCym7MfUzeqcaHj-0" vertex="1"><mxGeometry y="26" width="160" height="26" as="geometry"/></mxCell><mxCell id="5JrpgaCym7MfUzeqcaHj-74" value="vehicleId" style="text;align=left;verticalAlign=top;spacingLeft=4;spacingRight=4;overflow=hidden;rotatable=0;points=[[0,0.5],[1,0.5]];portConstraint=eastwest;" parent="5JrpgaCym7MfUzeqcaHj-0" vertex="1"><mxGeometry y="52" width="160" height="26" as="geometry"/></mxCell><mxCell id="5JrpgaCym7MfUzeqcaHj-76" value="workshopId" style="text;align=left;verticalAlign=top;spacingLeft=4;spacingRight=4;overflow=hidden;rotatable=0;points=[[0,0.5],[1,0.5]];portConstraint=eastwest;" parent="5JrpgaCym7MfUzeqcaHj-0" vertex="1"><mxGeometry y="78" width="160" height="26" as="geometry"/></mxCell><mxCell id="5JrpgaCym7MfUzeqcaHj-77" value="description" style="text;align=left;verticalAlign=top;spacingLeft=4;spacingRight=4;overflow=hidden;rotatable=0;points=[[0,0.5],[1,0.5]];portConstraint=eastwest;" parent="5JrpgaCym7MfUzeqcaHj-0" vertex="1"><mxGeometry y="104" width="160" height="26" as="geometry"/></mxCell><mxCell id="5JrpgaCym7MfUzeqcaHj-79" value="startDate" style="text;align=left;verticalAlign=top;spacingLeft=4;spacingRight=4;overflow=hidden;rotatable=0;points=[[0,0.5],[1,0.5]];portConstraint=eastwest;" parent="5JrpgaCym7MfUzeqcaHj-0" vertex="1"><mxGeometry y="130" width="160" height="26" as="geometry"/></mxCell><mxCell id="5JrpgaCym7MfUzeqcaHj-81" value="endDate" style="text;align=left;verticalAlign=top;spacingLeft=4;spacingRight=4;overflow=hidden;rotatable=0;points=[[0,0.5],[1,0.5]];portConstraint=eastwest;" parent="5JrpgaCym7MfUzeqcaHj-0" vertex="1"><mxGeometry y="156" width="160" height="26" as="geometry"/></mxCell><mxCell id="5JrpgaCym7MfUzeqcaHj-82" value="taskState" style="text;align=left;verticalAlign=top;spacingLeft=4;spacingRight=4;overflow=hidden;rotatable=0;points=[[0,0.5],[1,0.5]];portConstraint=eastwest;" parent="5JrpgaCym7MfUzeqcaHj-0" vertex="1"><mxGeometry y="182" width="160" height="26" as="geometry"/></mxCell><mxCell id="5JrpgaCym7MfUzeqcaHj-7" value="Client" style="swimlane;fontStyle=2;align=center;verticalAlign=top;childLayout=stackLayout;horizontal=1;startSize=26;horizontalStack=0;resizeParent=1;resizeLast=0;collapsible=1;marginBottom=0;rounded=0;shadow=0;strokeWidth=1;" parent="WIyWlLk6GJQsqaUBKTNV-1" vertex="1"><mxGeometry x="90" y="-68" width="160" height="138" as="geometry"><mxRectangle x="90" y="-68" width="160" height="26" as="alternateBounds"/></mxGeometry></mxCell><mxCell id="5JrpgaCym7MfUzeqcaHj-16" value="vehicleList" style="text;align=left;verticalAlign=top;spacingLeft=4;spacingRight=4;overflow=hidden;rotatable=0;points=[[0,0.5],[1,0.5]];portConstraint=eastwest;" parent="5JrpgaCym7MfUzeqcaHj-7" vertex="1"><mxGeometry y="26" width="160" height="26" as="geometry"/></mxCell><mxCell id="5JrpgaCym7MfUzeqcaHj-17" value="Workshop" style="swimlane;fontStyle=2;align=center;verticalAlign=top;childLayout=stackLayout;horizontal=1;startSize=26;horizontalStack=0;resizeParent=1;resizeLast=0;collapsible=1;marginBottom=0;rounded=0;shadow=0;strokeWidth=1;" parent="WIyWlLk6GJQsqaUBKTNV-1" vertex="1"><mxGeometry x="570" y="150" width="160" height="210" as="geometry"><mxRectangle x="230" y="140" width="160" height="26" as="alternateBounds"/></mxGeometry></mxCell><mxCell id="5JrpgaCym7MfUzeqcaHj-18" value="id" style="text;align=left;verticalAlign=top;spacingLeft=4;spacingRight=4;overflow=hidden;rotatable=0;points=[[0,0.5],[1,0.5]];portConstraint=eastwest;" parent="5JrpgaCym7MfUzeqcaHj-17" vertex="1"><mxGeometry y="26" width="160" height="26" as="geometry"/></mxCell><mxCell id="5JrpgaCym7MfUzeqcaHj-61" value="friendname" style="text;align=left;verticalAlign=top;spacingLeft=4;spacingRight=4;overflow=hidden;rotatable=0;points=[[0,0.5],[1,0.5]];portConstraint=eastwest;" parent="5JrpgaCym7MfUzeqcaHj-17" vertex="1"><mxGeometry y="52" width="160" height="26" as="geometry"/></mxCell><mxCell id="5JrpgaCym7MfUzeqcaHj-62" value="address" style="text;align=left;verticalAlign=top;spacingLeft=4;spacingRight=4;overflow=hidden;rotatable=0;points=[[0,0.5],[1,0.5]];portConstraint=eastwest;" parent="5JrpgaCym7MfUzeqcaHj-17" vertex="1"><mxGeometry y="78" width="160" height="26" as="geometry"/></mxCell><mxCell id="5JrpgaCym7MfUzeqcaHj-65" value="description" style="text;align=left;verticalAlign=top;spacingLeft=4;spacingRight=4;overflow=hidden;rotatable=0;points=[[0,0.5],[1,0.5]];portConstraint=eastwest;" parent="5JrpgaCym7MfUzeqcaHj-17" vertex="1"><mxGeometry y="104" width="160" height="26" as="geometry"/></mxCell><mxCell id="5JrpgaCym7MfUzeqcaHj-66" value="serviceList" style="text;align=left;verticalAlign=top;spacingLeft=4;spacingRight=4;overflow=hidden;rotatable=0;points=[[0,0.5],[1,0.5]];portConstraint=eastwest;" parent="5JrpgaCym7MfUzeqcaHj-17" vertex="1"><mxGeometry y="130" width="160" height="26" as="geometry"/></mxCell><mxCell id="0" value="dealerId" style="text;align=left;verticalAlign=top;spacingLeft=4;spacingRight=4;overflow=hidden;rotatable=0;points=[[0,0.5],[1,0.5]];portConstraint=eastwest;" vertex="1" parent="5JrpgaCym7MfUzeqcaHj-17"><mxGeometry y="156" width="160" height="26" as="geometry"/></mxCell><mxCell id="5JrpgaCym7MfUzeqcaHj-20" value="Dealer" style="swimlane;fontStyle=2;align=center;verticalAlign=top;childLayout=stackLayout;horizontal=1;startSize=26;horizontalStack=0;resizeParent=1;resizeLast=0;collapsible=1;marginBottom=0;rounded=0;shadow=0;strokeWidth=1;" parent="WIyWlLk6GJQsqaUBKTNV-1" vertex="1"><mxGeometry x="570" y="-68" width="160" height="138" as="geometry"><mxRectangle x="230" y="140" width="160" height="26" as="alternateBounds"/></mxGeometry></mxCell><mxCell id="5JrpgaCym7MfUzeqcaHj-21" value="workshopList" style="text;align=left;verticalAlign=top;spacingLeft=4;spacingRight=4;overflow=hidden;rotatable=0;points=[[0,0.5],[1,0.5]];portConstraint=eastwest;" parent="5JrpgaCym7MfUzeqcaHj-20" vertex="1"><mxGeometry y="26" width="160" height="26" as="geometry"/></mxCell><mxCell id="5JrpgaCym7MfUzeqcaHj-23" value="" style="endArrow=open;endSize=12;startArrow=diamondThin;startSize=14;startFill=0;edgeStyle=orthogonalEdgeStyle;rounded=0;sketch=0;exitX=0.5;exitY=0;exitDx=0;exitDy=0;entryX=0.5;entryY=1;entryDx=0;entryDy=0;html=1;" parent="WIyWlLk6GJQsqaUBKTNV-1" source="5JrpgaCym7MfUzeqcaHj-17" target="5JrpgaCym7MfUzeqcaHj-20" edge="1"><mxGeometry relative="1" as="geometry"><mxPoint x="350" y="200" as="sourcePoint"/><mxPoint x="510" y="200" as="targetPoint"/></mxGeometry></mxCell><mxCell id="5JrpgaCym7MfUzeqcaHj-24" value="0..n" style="edgeLabel;resizable=0;html=1;align=left;verticalAlign=top;" parent="5JrpgaCym7MfUzeqcaHj-23" connectable="0" vertex="1"><mxGeometry x="-1" relative="1" as="geometry"><mxPoint x="7" y="-24" as="offset"/></mxGeometry></mxCell><mxCell id="5JrpgaCym7MfUzeqcaHj-25" value="1" style="edgeLabel;resizable=0;html=1;align=right;verticalAlign=top;" parent="5JrpgaCym7MfUzeqcaHj-23" connectable="0" vertex="1"><mxGeometry x="1" relative="1" as="geometry"><mxPoint x="21" as="offset"/></mxGeometry></mxCell><mxCell id="5JrpgaCym7MfUzeqcaHj-26" value="" style="endArrow=open;endSize=12;startArrow=diamondThin;startSize=14;startFill=0;edgeStyle=orthogonalEdgeStyle;rounded=0;sketch=0;exitX=1;exitY=0.5;exitDx=0;exitDy=0;html=1;entryX=0;entryY=0.5;entryDx=0;entryDy=0;" parent="WIyWlLk6GJQsqaUBKTNV-1" source="5JrpgaCym7MfUzeqcaHj-0" target="5JrpgaCym7MfUzeqcaHj-17" edge="1"><mxGeometry relative="1" as="geometry"><mxPoint x="660" y="160" as="sourcePoint"/><mxPoint x="540" y="250" as="targetPoint"/></mxGeometry></mxCell><mxCell id="5JrpgaCym7MfUzeqcaHj-27" value="0..n" style="edgeLabel;resizable=0;html=1;align=left;verticalAlign=top;" parent="5JrpgaCym7MfUzeqcaHj-26" connectable="0" vertex="1"><mxGeometry x="-1" relative="1" as="geometry"><mxPoint x="7" y="-24" as="offset"/></mxGeometry></mxCell><mxCell id="5JrpgaCym7MfUzeqcaHj-28" value="1" style="edgeLabel;resizable=0;html=1;align=right;verticalAlign=top;" parent="5JrpgaCym7MfUzeqcaHj-26" connectable="0" vertex="1"><mxGeometry x="1" relative="1" as="geometry"><mxPoint x="-19" y="-25" as="offset"/></mxGeometry></mxCell><mxCell id="5JrpgaCym7MfUzeqcaHj-29" value="" style="endArrow=open;endSize=12;startArrow=diamondThin;startSize=14;startFill=0;edgeStyle=orthogonalEdgeStyle;rounded=0;sketch=0;exitX=0;exitY=0.5;exitDx=0;exitDy=0;entryX=1;entryY=0.5;entryDx=0;entryDy=0;html=1;" parent="WIyWlLk6GJQsqaUBKTNV-1" source="5JrpgaCym7MfUzeqcaHj-0" target="zkfFHV4jXpPFQw0GAbJ--0" edge="1"><mxGeometry relative="1" as="geometry"><mxPoint x="670" y="170" as="sourcePoint"/><mxPoint x="670" y="90" as="targetPoint"/></mxGeometry></mxCell><mxCell id="5JrpgaCym7MfUzeqcaHj-30" value="0..n" style="edgeLabel;resizable=0;html=1;align=left;verticalAlign=top;" parent="5JrpgaCym7MfUzeqcaHj-29" connectable="0" vertex="1"><mxGeometry x="-1" relative="1" as="geometry"><mxPoint x="-24" y="-31" as="offset"/></mxGeometry></mxCell><mxCell id="5JrpgaCym7MfUzeqcaHj-31" value="1" style="edgeLabel;resizable=0;html=1;align=right;verticalAlign=top;" parent="5JrpgaCym7MfUzeqcaHj-29" connectable="0" vertex="1"><mxGeometry x="1" relative="1" as="geometry"><mxPoint x="16" y="-30" as="offset"/></mxGeometry></mxCell><mxCell id="5JrpgaCym7MfUzeqcaHj-32" value="" style="endArrow=open;endSize=12;startArrow=diamondThin;startSize=14;startFill=0;edgeStyle=orthogonalEdgeStyle;rounded=0;sketch=0;entryX=0.5;entryY=1;entryDx=0;entryDy=0;html=1;exitX=0.5;exitY=0;exitDx=0;exitDy=0;" parent="WIyWlLk6GJQsqaUBKTNV-1" source="zkfFHV4jXpPFQw0GAbJ--0" target="5JrpgaCym7MfUzeqcaHj-7" edge="1"><mxGeometry relative="1" as="geometry"><mxPoint x="210" y="130" as="sourcePoint"/><mxPoint x="680" y="100" as="targetPoint"/></mxGeometry></mxCell><mxCell id="5JrpgaCym7MfUzeqcaHj-33" value="0..n" style="edgeLabel;resizable=0;html=1;align=left;verticalAlign=top;" parent="5JrpgaCym7MfUzeqcaHj-32" connectable="0" vertex="1"><mxGeometry x="-1" relative="1" as="geometry"><mxPoint x="7" y="-24" as="offset"/></mxGeometry></mxCell><mxCell id="5JrpgaCym7MfUzeqcaHj-34" value="1" style="edgeLabel;resizable=0;html=1;align=right;verticalAlign=top;" parent="5JrpgaCym7MfUzeqcaHj-32" connectable="0" vertex="1"><mxGeometry x="1" relative="1" as="geometry"><mxPoint x="21" as="offset"/></mxGeometry></mxCell><mxCell id="5JrpgaCym7MfUzeqcaHj-35" value="User" style="swimlane;fontStyle=2;align=center;verticalAlign=top;childLayout=stackLayout;horizontal=1;startSize=26;horizontalStack=0;resizeParent=1;resizeLast=0;collapsible=1;marginBottom=0;rounded=0;shadow=0;strokeWidth=1;" parent="WIyWlLk6GJQsqaUBKTNV-1" vertex="1"><mxGeometry x="360" y="-320" width="160" height="162" as="geometry"><mxRectangle x="90" y="-68" width="160" height="26" as="alternateBounds"/></mxGeometry></mxCell><mxCell id="5JrpgaCym7MfUzeqcaHj-36" value="id" style="text;align=left;verticalAlign=top;spacingLeft=4;spacingRight=4;overflow=hidden;rotatable=0;points=[[0,0.5],[1,0.5]];portConstraint=eastwest;" parent="5JrpgaCym7MfUzeqcaHj-35" vertex="1"><mxGeometry y="26" width="160" height="26" as="geometry"/></mxCell><mxCell id="5JrpgaCym7MfUzeqcaHj-37" value="friendname" style="text;align=left;verticalAlign=top;spacingLeft=4;spacingRight=4;overflow=hidden;rotatable=0;points=[[0,0.5],[1,0.5]];portConstraint=eastwest;" parent="5JrpgaCym7MfUzeqcaHj-35" vertex="1"><mxGeometry y="52" width="160" height="26" as="geometry"/></mxCell><mxCell id="5JrpgaCym7MfUzeqcaHj-38" value="email" style="text;align=left;verticalAlign=top;spacingLeft=4;spacingRight=4;overflow=hidden;rotatable=0;points=[[0,0.5],[1,0.5]];portConstraint=eastwest;rounded=0;shadow=0;html=0;" parent="5JrpgaCym7MfUzeqcaHj-35" vertex="1"><mxGeometry y="78" width="160" height="28" as="geometry"/></mxCell><mxCell id="5JrpgaCym7MfUzeqcaHj-39" value="password" style="text;align=left;verticalAlign=top;spacingLeft=4;spacingRight=4;overflow=hidden;rotatable=0;points=[[0,0.5],[1,0.5]];portConstraint=eastwest;rounded=0;shadow=0;html=0;" parent="5JrpgaCym7MfUzeqcaHj-35" vertex="1"><mxGeometry y="106" width="160" height="28" as="geometry"/></mxCell><mxCell id="5JrpgaCym7MfUzeqcaHj-41" value="Extends" style="endArrow=block;endSize=16;endFill=0;html=1;rounded=0;sketch=0;exitX=0.5;exitY=0;exitDx=0;exitDy=0;entryX=0.25;entryY=1;entryDx=0;entryDy=0;edgeStyle=elbowEdgeStyle;elbow=vertical;" parent="WIyWlLk6GJQsqaUBKTNV-1" source="5JrpgaCym7MfUzeqcaHj-7" target="5JrpgaCym7MfUzeqcaHj-35" edge="1"><mxGeometry width="160" relative="1" as="geometry"><mxPoint x="350" y="-30" as="sourcePoint"/><mxPoint x="430" y="-120" as="targetPoint"/></mxGeometry></mxCell><mxCell id="5JrpgaCym7MfUzeqcaHj-42" value="Extends" style="endArrow=block;endSize=16;endFill=0;html=1;rounded=0;sketch=0;exitX=0.5;exitY=0;exitDx=0;exitDy=0;entryX=0.75;entryY=1;entryDx=0;entryDy=0;edgeStyle=elbowEdgeStyle;elbow=vertical;" parent="WIyWlLk6GJQsqaUBKTNV-1" source="5JrpgaCym7MfUzeqcaHj-20" target="5JrpgaCym7MfUzeqcaHj-35" edge="1"><mxGeometry width="160" relative="1" as="geometry"><mxPoint x="180" y="-58" as="sourcePoint"/><mxPoint x="440" y="-120" as="targetPoint"/></mxGeometry></mxCell><mxCell id="5JrpgaCym7MfUzeqcaHj-67" value="WorkshopService" style="swimlane;fontStyle=0;childLayout=stackLayout;horizontal=1;startSize=26;fillColor=none;horizontalStack=0;resizeParent=1;resizeParentMax=0;resizeLast=0;collapsible=1;marginBottom=0;" parent="WIyWlLk6GJQsqaUBKTNV-1" vertex="1"><mxGeometry x="540" y="550" width="140" height="52" as="geometry"><mxRectangle x="550" y="450" width="130" height="26" as="alternateBounds"/></mxGeometry></mxCell><mxCell id="5JrpgaCym7MfUzeqcaHj-68" value="name" style="text;strokeColor=none;fillColor=none;align=left;verticalAlign=top;spacingLeft=4;spacingRight=4;overflow=hidden;rotatable=0;points=[[0,0.5],[1,0.5]];portConstraint=eastwest;" parent="5JrpgaCym7MfUzeqcaHj-67" vertex="1"><mxGeometry y="26" width="140" height="26" as="geometry"/></mxCell><mxCell id="5JrpgaCym7MfUzeqcaHj-83" value="TaskState" style="swimlane;fontStyle=0;childLayout=stackLayout;horizontal=1;startSize=26;fillColor=none;horizontalStack=0;resizeParent=1;resizeParentMax=0;resizeLast=0;collapsible=1;marginBottom=0;" parent="WIyWlLk6GJQsqaUBKTNV-1" vertex="1"><mxGeometry x="210" y="550" width="140" height="52" as="geometry"><mxRectangle x="550" y="450" width="130" height="26" as="alternateBounds"/></mxGeometry></mxCell><mxCell id="5JrpgaCym7MfUzeqcaHj-84" value="name" style="text;strokeColor=none;fillColor=none;align=left;verticalAlign=top;spacingLeft=4;spacingRight=4;overflow=hidden;rotatable=0;points=[[0,0.5],[1,0.5]];portConstraint=eastwest;" parent="5JrpgaCym7MfUzeqcaHj-83" vertex="1"><mxGeometry y="26" width="140" height="26" as="geometry"/></mxCell></root></mxGraphModel></diagram></mxfile>